<svg width="309" height="47" viewBox="0 0 309 47" fill="none" xmlns="http://www.w3.org/2000/svg">
<path d="M20.4445 30.2143C31.3022 30.2143 40.1041 23.4506 40.1041 15.1071C40.1041 6.7637 31.3022 0 20.4445 0C9.5868 0 0.784912 6.7637 0.784912 15.1071C0.784912 23.4506 9.5868 30.2143 20.4445 30.2143Z" fill="url(#paint0_linear_1_695)"/>
<path d="M47.7494 37.7679C54.9879 37.7679 60.8558 33.2587 60.8558 27.6964C60.8558 22.1341 54.9879 17.625 47.7494 17.625C40.511 17.625 34.6431 22.1341 34.6431 27.6964C34.6431 33.2587 40.511 37.7679 47.7494 37.7679Z" fill="url(#paint1_linear_1_695)"/>
<path d="M25.9056 42.8036C30.7312 42.8036 34.6431 39.7975 34.6431 36.0893C34.6431 32.3811 30.7312 29.375 25.9056 29.375C21.0799 29.375 17.168 32.3811 17.168 36.0893C17.168 39.7975 21.0799 42.8036 25.9056 42.8036Z" fill="url(#paint2_radial_1_695)"/>
<path d="M36.8274 10.9106C47.7494 13.7083 55.0307 17.9047 58.6714 23.4999" stroke="url(#paint3_linear_1_695)" stroke-width="6" stroke-linecap="round"/>
<path d="M14.9834 27.6963C18.6241 36.0891 25.9054 40.2856 36.8274 40.2856" stroke="url(#paint4_linear_1_695)" stroke-width="4" stroke-linecap="round"/>
<path d="M58.6715 14.268C61.0843 14.268 63.0403 12.765 63.0403 10.9109C63.0403 9.05675 61.0843 7.55371 58.6715 7.55371C56.2587 7.55371 54.3027 9.05675 54.3027 10.9109C54.3027 12.765 56.2587 14.268 58.6715 14.268Z" fill="#93C5FD"/>
<path d="M9.52245 47.0001C11.3321 47.0001 12.799 45.8728 12.799 44.4822C12.799 43.0916 11.3321 41.9644 9.52245 41.9644C7.71283 41.9644 6.24585 43.0916 6.24585 44.4822C6.24585 45.8728 7.71283 47.0001 9.52245 47.0001Z" fill="#BFDBFE"/>
<path d="M87.7462 31.1963V10.8327H101.468V14.3824H92.0516V19.2346H100.762V22.7844H92.0516V27.6466H101.508V31.1963H87.7462ZM111.712 31.4946C110.147 31.4946 108.802 31.1631 107.675 30.5003C106.555 29.8308 105.693 28.9027 105.09 27.7162C104.493 26.5296 104.195 25.1641 104.195 23.6196C104.195 22.0552 104.496 20.683 105.1 19.5031C105.709 18.3166 106.574 17.3918 107.695 16.729C108.815 16.0595 110.147 15.7247 111.692 15.7247C113.024 15.7247 114.191 15.9666 115.192 16.4505C116.193 16.9345 116.985 17.6139 117.568 18.4889C118.152 19.3639 118.473 20.3914 118.533 21.5713H114.536C114.423 20.809 114.125 20.1958 113.641 19.7318C113.163 19.2612 112.537 19.0258 111.761 19.0258C111.105 19.0258 110.532 19.2048 110.041 19.5628C109.557 19.9141 109.18 20.4278 108.908 21.104C108.636 21.7801 108.5 22.5988 108.5 23.5599C108.5 24.5344 108.633 25.363 108.898 26.0457C109.17 26.7285 109.551 27.2488 110.041 27.6068C110.532 27.9648 111.105 28.1437 111.761 28.1437C112.245 28.1437 112.68 28.0443 113.064 27.8454C113.455 27.6466 113.777 27.3582 114.029 26.9804C114.287 26.5959 114.456 26.1352 114.536 25.5983H118.533C118.466 26.7649 118.148 27.7924 117.578 28.6807C117.015 29.5623 116.236 30.2517 115.242 30.7488C114.247 31.246 113.071 31.4946 111.712 31.4946ZM128.145 31.4946C126.601 31.4946 125.265 31.1665 124.138 30.5102C123.018 29.8473 122.153 28.9259 121.543 27.746C120.933 26.5595 120.628 25.184 120.628 23.6196C120.628 22.0419 120.933 20.6631 121.543 19.4832C122.153 18.2967 123.018 17.3753 124.138 16.719C125.265 16.0561 126.601 15.7247 128.145 15.7247C129.69 15.7247 131.022 16.0561 132.143 16.719C133.269 17.3753 134.138 18.2967 134.748 19.4832C135.357 20.6631 135.662 22.0419 135.662 23.6196C135.662 25.184 135.357 26.5595 134.748 27.746C134.138 28.9259 133.269 29.8473 132.143 30.5102C131.022 31.1665 129.69 31.4946 128.145 31.4946ZM128.165 28.2133C128.868 28.2133 129.455 28.0145 129.925 27.6167C130.396 27.2124 130.75 26.6622 130.989 25.9662C131.234 25.2702 131.357 24.478 131.357 23.5898C131.357 22.7015 131.234 21.9094 130.989 21.2133C130.75 20.5173 130.396 19.9671 129.925 19.5628C129.455 19.1584 128.868 18.9562 128.165 18.9562C127.456 18.9562 126.859 19.1584 126.375 19.5628C125.898 19.9671 125.537 20.5173 125.292 21.2133C125.053 21.9094 124.934 22.7015 124.934 23.5898C124.934 24.478 125.053 25.2702 125.292 25.9662C125.537 26.6622 125.898 27.2124 126.375 27.6167C126.859 28.0145 127.456 28.2133 128.165 28.2133ZM138.417 31.1963V15.9236H142.454V18.6182H142.633C142.951 17.7233 143.481 17.0173 144.223 16.5003C144.966 15.9832 145.854 15.7247 146.888 15.7247C147.936 15.7247 148.827 15.9865 149.563 16.5102C150.299 17.0273 150.789 17.7299 151.035 18.6182H151.194C151.505 17.7432 152.069 17.0438 152.884 16.5202C153.706 15.9898 154.677 15.7247 155.797 15.7247C157.223 15.7247 158.379 16.1788 159.268 17.0869C160.162 17.9884 160.61 19.2678 160.61 20.925V31.1963H156.384V21.7602C156.384 20.9117 156.159 20.2754 155.708 19.8511C155.257 19.4269 154.694 19.2148 154.018 19.2148C153.249 19.2148 152.649 19.46 152.218 19.9506C151.787 20.4345 151.571 21.0741 151.571 21.8696V31.1963H147.465V21.6707C147.465 20.9217 147.25 20.3251 146.819 19.8809C146.394 19.4368 145.834 19.2148 145.138 19.2148C144.668 19.2148 144.243 19.3341 143.866 19.5727C143.494 19.8047 143.199 20.1328 142.981 20.5571C142.762 20.9747 142.652 21.4652 142.652 22.0287V31.1963H138.417ZM163.956 31.1963V15.9236H167.993V18.6182H168.172C168.49 17.7233 169.02 17.0173 169.763 16.5003C170.505 15.9832 171.393 15.7247 172.427 15.7247C173.475 15.7247 174.366 15.9865 175.102 16.5102C175.838 17.0273 176.328 17.7299 176.574 18.6182H176.733C177.044 17.7432 177.608 17.0438 178.423 16.5202C179.245 15.9898 180.216 15.7247 181.336 15.7247C182.762 15.7247 183.918 16.1788 184.807 17.0869C185.701 17.9884 186.149 19.2678 186.149 20.925V31.1963H181.923V21.7602C181.923 20.9117 181.698 20.2754 181.247 19.8511C180.796 19.4269 180.233 19.2148 179.557 19.2148C178.788 19.2148 178.188 19.46 177.757 19.9506C177.326 20.4345 177.111 21.0741 177.111 21.8696V31.1963H173.004V21.6707C173.004 20.9217 172.789 20.3251 172.358 19.8809C171.933 19.4368 171.373 19.2148 170.677 19.2148C170.207 19.2148 169.782 19.3341 169.405 19.5727C169.033 19.8047 168.738 20.1328 168.52 20.5571C168.301 20.9747 168.192 21.4652 168.192 22.0287V31.1963H163.956ZM196.455 31.4946C194.884 31.4946 193.532 31.1764 192.398 30.54C191.271 29.897 190.403 28.9889 189.793 27.8156C189.183 26.6357 188.878 25.2403 188.878 23.6295C188.878 22.0585 189.183 20.6797 189.793 19.4932C190.403 18.3066 191.261 17.3819 192.368 16.719C193.482 16.0561 194.788 15.7247 196.286 15.7247C197.294 15.7247 198.232 15.8871 199.1 16.2119C199.975 16.5301 200.737 17.0107 201.387 17.6537C202.043 18.2967 202.553 19.1054 202.918 20.0798C203.283 21.0476 203.465 22.1811 203.465 23.4804V24.6437H190.569V22.0187H199.478C199.478 21.4089 199.345 20.8686 199.08 20.398C198.815 19.9273 198.447 19.5595 197.976 19.2943C197.512 19.0225 196.972 18.8866 196.356 18.8866C195.713 18.8866 195.143 19.0358 194.645 19.3341C194.155 19.6257 193.77 20.0202 193.492 20.5173C193.214 21.0078 193.071 21.5547 193.064 22.1579V24.6537C193.064 25.4094 193.204 26.0623 193.482 26.6125C193.767 27.1627 194.168 27.5869 194.685 27.8852C195.202 28.1835 195.815 28.3327 196.525 28.3327C196.995 28.3327 197.426 28.2664 197.817 28.1338C198.208 28.0012 198.543 27.8023 198.821 27.5372C199.1 27.272 199.312 26.9472 199.458 26.5628L203.375 26.8213C203.177 27.7626 202.769 28.5845 202.152 29.2872C201.543 29.9832 200.754 30.5268 199.786 30.9179C198.825 31.3023 197.714 31.4946 196.455 31.4946ZM206.229 31.1963V15.9236H210.336V18.5883H210.495C210.773 17.6404 211.241 16.9245 211.897 16.4406C212.553 15.9501 213.309 15.7048 214.164 15.7048C214.376 15.7048 214.605 15.7181 214.85 15.7446C215.095 15.7711 215.311 15.8076 215.496 15.854V19.6125C215.297 19.5528 215.022 19.4998 214.671 19.4534C214.32 19.407 213.998 19.3838 213.706 19.3838C213.083 19.3838 212.527 19.5197 212.036 19.7915C211.552 20.0566 211.168 20.4278 210.883 20.9051C210.604 21.3824 210.465 21.9326 210.465 22.5557V31.1963H206.229ZM223.876 31.4946C222.311 31.4946 220.966 31.1631 219.839 30.5003C218.719 29.8308 217.857 28.9027 217.254 27.7162C216.657 26.5296 216.359 25.1641 216.359 23.6196C216.359 22.0552 216.66 20.683 217.264 19.5031C217.873 18.3166 218.739 17.3918 219.859 16.729C220.979 16.0595 222.311 15.7247 223.856 15.7247C225.188 15.7247 226.355 15.9666 227.356 16.4505C228.357 16.9345 229.149 17.6139 229.732 18.4889C230.316 19.3639 230.637 20.3914 230.697 21.5713H226.7C226.587 20.809 226.289 20.1958 225.805 19.7318C225.328 19.2612 224.701 19.0258 223.926 19.0258C223.269 19.0258 222.696 19.2048 222.205 19.5628C221.721 19.9141 221.344 20.4278 221.072 21.104C220.8 21.7801 220.664 22.5988 220.664 23.5599C220.664 24.5344 220.797 25.363 221.062 26.0457C221.334 26.7285 221.715 27.2488 222.205 27.6068C222.696 27.9648 223.269 28.1437 223.926 28.1437C224.409 28.1437 224.844 28.0443 225.228 27.8454C225.619 27.6466 225.941 27.3582 226.193 26.9804C226.451 26.5959 226.62 26.1352 226.7 25.5983H230.697C230.631 26.7649 230.312 27.7924 229.742 28.6807C229.179 29.5623 228.4 30.2517 227.406 30.7488C226.411 31.246 225.235 31.4946 223.876 31.4946ZM240.369 31.4946C238.798 31.4946 237.446 31.1764 236.312 30.54C235.185 29.897 234.317 28.9889 233.707 27.8156C233.097 26.6357 232.792 25.2403 232.792 23.6295C232.792 22.0585 233.097 20.6797 233.707 19.4932C234.317 18.3066 235.175 17.3819 236.282 16.719C237.396 16.0561 238.702 15.7247 240.2 15.7247C241.208 15.7247 242.146 15.8871 243.014 16.2119C243.889 16.5301 244.651 17.0107 245.301 17.6537C245.957 18.2967 246.468 19.1054 246.832 20.0798C247.197 21.0476 247.379 22.1811 247.379 23.4804V24.6437H234.483V22.0187H243.392C243.392 21.4089 243.259 20.8686 242.994 20.398C242.729 19.9273 242.361 19.5595 241.89 19.2943C241.426 19.0225 240.886 18.8866 240.27 18.8866C239.627 18.8866 239.057 19.0358 238.559 19.3341C238.069 19.6257 237.684 20.0202 237.406 20.5173C237.128 21.0078 236.985 21.5547 236.978 22.1579V24.6537C236.978 25.4094 237.118 26.0623 237.396 26.6125C237.681 27.1627 238.082 27.5869 238.599 27.8852C239.116 28.1835 239.729 28.3327 240.439 28.3327C240.909 28.3327 241.34 28.2664 241.731 28.1338C242.122 28.0012 242.457 27.8023 242.736 27.5372C243.014 27.272 243.226 26.9472 243.372 26.5628L247.29 26.8213C247.091 27.7626 246.683 28.5845 246.067 29.2872C245.457 29.9832 244.668 30.5268 243.7 30.9179C242.739 31.3023 241.629 31.4946 240.369 31.4946ZM252.619 31.4548C251.963 31.4548 251.399 31.2228 250.929 30.7588C250.465 30.2881 250.233 29.7247 250.233 29.0684C250.233 28.4188 250.465 27.862 250.929 27.398C251.399 26.934 251.963 26.702 252.619 26.702C253.255 26.702 253.812 26.934 254.29 27.398C254.767 27.862 255.005 28.4188 255.005 29.0684C255.005 29.5059 254.893 29.907 254.667 30.2716C254.449 30.6295 254.16 30.9179 253.802 31.1366C253.444 31.3488 253.05 31.4548 252.619 31.4548ZM262.321 26.8014L262.331 21.7204H262.948L267.84 15.9236H272.702L266.129 23.5997H265.125L262.321 26.8014ZM258.483 31.1963V10.8327H262.719V31.1963H258.483ZM268.029 31.1963L263.534 24.5443L266.358 21.5514L272.99 31.1963H268.029ZM274.7 31.1963V28.6707L282.178 19.4136V19.3042H274.959V15.9236H287.279V18.6778L280.259 27.7062V27.8156H287.537V31.1963H274.7Z" fill="black"/>
<path opacity="0.6" d="M238.884 20.9821C240.091 20.9821 241.069 20.2306 241.069 19.3036C241.069 18.3765 240.091 17.625 238.884 17.625C237.678 17.625 236.7 18.3765 236.7 19.3036C236.7 20.2306 237.678 20.9821 238.884 20.9821Z" fill="#DBEAFE"/>
<defs>
<linearGradient id="paint0_linear_1_695" x1="0.784912" y1="0" x2="2920.35" y2="3799.36" gradientUnits="userSpaceOnUse">
<stop stop-color="#1E40AF"/>
<stop offset="1" stop-color="#3B82F6"/>
</linearGradient>
<linearGradient id="paint1_linear_1_695" x1="34.6431" y1="17.625" x2="1981.02" y2="2550.53" gradientUnits="userSpaceOnUse">
<stop stop-color="#3B82F6"/>
<stop offset="1" stop-color="#60A5FA"/>
</linearGradient>
<radialGradient id="paint2_radial_1_695" cx="0" cy="0" r="1" gradientUnits="userSpaceOnUse" gradientTransform="translate(890.927 700.804) scale(873.759 671.429)">
<stop stop-color="#93C5FD"/>
<stop offset="1" stop-color="#60A5FA"/>
</radialGradient>
<linearGradient id="paint3_linear_1_695" x1="36.8274" y1="10.9106" x2="1126.12" y2="1900.98" gradientUnits="userSpaceOnUse">
<stop stop-color="#3B82F6"/>
<stop offset="1" stop-color="#60A5FA"/>
</linearGradient>
<linearGradient id="paint4_linear_1_695" x1="14.9834" y1="27.6963" x2="1104.28" y2="1917.76" gradientUnits="userSpaceOnUse">
<stop stop-color="#1E40AF"/>
<stop offset="1" stop-color="#3B82F6"/>
</linearGradient>
</defs>
</svg>
