<svg width="25" height="24" viewBox="0 0 25 24" fill="none" xmlns="http://www.w3.org/2000/svg">
<g opacity="0.32">
<path d="M12.1977 10.287C12.4238 10.287 12.6476 10.2422 12.8563 10.1552C13.065 10.0683 13.2544 9.94083 13.4136 9.78026C13.5727 9.61969 13.6985 9.42919 13.7837 9.21975C13.8688 9.0103 13.9116 8.78607 13.9097 8.55999C13.9103 8.33384 13.8663 8.1098 13.78 7.90076C13.6937 7.69171 13.567 7.5018 13.407 7.34193C13.2471 7.18207 13.0571 7.05542 12.848 6.96928C12.6389 6.88313 12.4148 6.83919 12.1887 6.83999C11.9605 6.8389 11.7344 6.88328 11.5236 6.97051C11.3128 7.05775 11.1215 7.1861 10.9608 7.34807C10.8001 7.51005 10.6733 7.70241 10.5878 7.91392C10.5023 8.12543 10.4597 8.35185 10.4627 8.57998C10.4707 9.53398 11.2397 10.29 12.1977 10.287Z" fill="black"/>
<path d="M12.1897 2C6.6667 2 2.1897 6.477 2.1897 12C2.1897 17.523 6.6667 22 12.1897 22C17.7127 22 22.1897 17.523 22.1897 12C22.1897 6.477 17.7127 2 12.1897 2ZM12.2037 5.041C14.1517 5.046 15.7147 6.64 15.7057 8.609C15.6957 10.533 14.1057 12.092 12.1617 12.085C10.2367 12.079 8.6587 10.483 8.6697 8.555C8.6734 7.6207 9.04756 6.72603 9.71009 6.06725C10.3726 5.40848 11.2694 5.0394 12.2037 5.041ZM16.1497 13.469C15.7187 13.912 15.1997 14.232 14.6247 14.455C14.0797 14.665 13.4837 14.772 12.8927 14.843C12.9827 14.94 13.0247 14.987 13.0797 15.043C13.8817 15.849 14.6867 16.65 15.4847 17.458C15.7577 17.733 15.8147 18.075 15.6647 18.394C15.5007 18.744 15.1337 18.974 14.7747 18.949C14.5457 18.934 14.3677 18.82 14.2107 18.661C13.6057 18.053 12.9897 17.455 12.3967 16.835C12.2247 16.655 12.1417 16.689 11.9887 16.846C11.3807 17.473 10.7627 18.089 10.1407 18.702C9.8607 18.978 9.5297 19.027 9.2047 18.87C8.8607 18.703 8.6417 18.352 8.6587 17.998C8.6707 17.759 8.7887 17.576 8.9517 17.413C9.7457 16.622 10.5357 15.828 11.3267 15.034C11.3797 14.981 11.4287 14.926 11.5047 14.844C10.4257 14.731 9.4527 14.466 8.6197 13.814C8.5167 13.734 8.4097 13.655 8.3157 13.564C7.9507 13.214 7.9147 12.813 8.2027 12.4C8.4497 12.046 8.8637 11.952 9.2947 12.155C9.3777 12.195 9.4577 12.244 9.5337 12.296C11.0857 13.363 13.2177 13.392 14.7757 12.344C14.9307 12.226 15.0957 12.129 15.2867 12.08C15.4586 12.0294 15.6425 12.0379 15.809 12.1043C15.9754 12.1707 16.1148 12.291 16.2047 12.446C16.4327 12.818 16.4297 13.181 16.1487 13.47L16.1497 13.469Z" fill="black"/>
<path d="M12.1977 10.287C12.4238 10.287 12.6476 10.2422 12.8563 10.1552C13.065 10.0683 13.2544 9.94083 13.4136 9.78026C13.5727 9.61969 13.6985 9.42919 13.7837 9.21975C13.8688 9.0103 13.9116 8.78607 13.9097 8.55999C13.9103 8.33384 13.8663 8.1098 13.78 7.90076C13.6937 7.69171 13.567 7.5018 13.407 7.34193C13.2471 7.18207 13.0571 7.05542 12.848 6.96928C12.6389 6.88313 12.4148 6.83919 12.1887 6.83999C11.9605 6.8389 11.7344 6.88328 11.5236 6.97051C11.3128 7.05775 11.1215 7.1861 10.9608 7.34807C10.8001 7.51005 10.6733 7.70241 10.5878 7.91392C10.5023 8.12543 10.4597 8.35185 10.4627 8.57998C10.4707 9.53398 11.2397 10.29 12.1977 10.287Z" fill="black"/>
<path d="M12.1897 2C6.6667 2 2.1897 6.477 2.1897 12C2.1897 17.523 6.6667 22 12.1897 22C17.7127 22 22.1897 17.523 22.1897 12C22.1897 6.477 17.7127 2 12.1897 2ZM12.2037 5.041C14.1517 5.046 15.7147 6.64 15.7057 8.609C15.6957 10.533 14.1057 12.092 12.1617 12.085C10.2367 12.079 8.6587 10.483 8.6697 8.555C8.6734 7.6207 9.04756 6.72603 9.71009 6.06725C10.3726 5.40848 11.2694 5.0394 12.2037 5.041ZM16.1497 13.469C15.7187 13.912 15.1997 14.232 14.6247 14.455C14.0797 14.665 13.4837 14.772 12.8927 14.843C12.9827 14.94 13.0247 14.987 13.0797 15.043C13.8817 15.849 14.6867 16.65 15.4847 17.458C15.7577 17.733 15.8147 18.075 15.6647 18.394C15.5007 18.744 15.1337 18.974 14.7747 18.949C14.5457 18.934 14.3677 18.82 14.2107 18.661C13.6057 18.053 12.9897 17.455 12.3967 16.835C12.2247 16.655 12.1417 16.689 11.9887 16.846C11.3807 17.473 10.7627 18.089 10.1407 18.702C9.8607 18.978 9.5297 19.027 9.2047 18.87C8.8607 18.703 8.6417 18.352 8.6587 17.998C8.6707 17.759 8.7887 17.576 8.9517 17.413C9.7457 16.622 10.5357 15.828 11.3267 15.034C11.3797 14.981 11.4287 14.926 11.5047 14.844C10.4257 14.731 9.4527 14.466 8.6197 13.814C8.5167 13.734 8.4097 13.655 8.3157 13.564C7.9507 13.214 7.9147 12.813 8.2027 12.4C8.4497 12.046 8.8637 11.952 9.2947 12.155C9.3777 12.195 9.4577 12.244 9.5337 12.296C11.0857 13.363 13.2177 13.392 14.7757 12.344C14.9307 12.226 15.0957 12.129 15.2867 12.08C15.4586 12.0294 15.6425 12.0379 15.809 12.1043C15.9754 12.1707 16.1148 12.291 16.2047 12.446C16.4327 12.818 16.4297 13.181 16.1487 13.47L16.1497 13.469Z" fill="black"/>
</g>
</svg>
