<svg width="25" height="24" viewBox="0 0 25 24" fill="none" xmlns="http://www.w3.org/2000/svg">
<g opacity="0.32">
<path d="M15.2597 2H9.1197C3.5197 2 2.1897 3.33 2.1897 8.93V15.07C2.1897 20.67 3.5197 22 9.1197 22H15.2597C20.8597 22 22.1897 20.67 22.1897 15.07V8.93C22.1897 3.33 20.8597 2 15.2597 2ZM18.3397 16.27H16.8797C16.3297 16.27 16.1597 15.82 15.1897 14.83C14.3097 14 13.9297 13.88 13.7197 13.88C13.4297 13.88 13.3397 13.96 13.3397 14.38V15.69C13.3397 16.04 13.2297 16.26 12.2997 16.26C10.7597 16.26 9.0497 15.32 7.8497 13.59C6.0397 11.05 5.5497 9.13 5.5497 8.75C5.5497 8.54 5.6197 8.34 6.0397 8.34H7.5097C7.8797 8.34 8.0197 8.5 8.1597 8.9C8.8797 11 10.0797 12.8 10.5697 12.8C10.7597 12.8 10.8397 12.71 10.8397 12.25V10.1C10.7897 9.12 10.2597 9.03 10.2597 8.68C10.2597 8.5 10.3997 8.34 10.6297 8.34H12.9197C13.2297 8.34 13.3397 8.5 13.3397 8.88V11.77C13.3397 12.08 13.4697 12.19 13.5697 12.19C13.7497 12.19 13.9097 12.08 14.2397 11.74C15.2897 10.57 16.0397 8.76 16.0397 8.76C16.1397 8.55 16.2997 8.35 16.6897 8.35H18.1197C18.5597 8.35 18.6597 8.58 18.5597 8.89C18.3797 9.74 16.5997 12.25 16.6197 12.25C16.4597 12.5 16.3997 12.61 16.6197 12.9C16.7697 13.11 17.2797 13.55 17.6197 13.94C18.2397 14.65 18.7197 15.24 18.8497 15.65C18.9597 16.06 18.7597 16.27 18.3397 16.27Z" fill="black"/>
</g>
</svg>
